<?xml version="1.0" encoding="utf-8"?>
<svg version="1.1" id="Ebene_1" xmlns="http://www.w3.org/2000/svg" xmlns:xlink="http://www.w3.org/1999/xlink" x="0px" y="0px"
	 viewBox="0 0 16 16" style="enable-background:new 0 0 16 16;" xml:space="preserve">
<style type="text/css">
	.st0{fill:#888888;}
	.st1{fill:#666666;}
	.st2{fill:#FFC857;}
	.st3{fill:#AAD400;}
	.st4{fill:#79A548;}
	.st5{fill:#FF8700;}
	.st6{fill:#AAAAAA;}
	.st7{fill:#7F86D6;}
	.st8{fill:#FFFFFF;}
</style>
<path class="st0" d="M0,2v12h12.7V3.8H5.1L3.9,2H0z"/>
<g>
	<path class="st1" d="M0.7,0v5.5L9.1,14l5.6-5.6L6.3,0H0.7z M3.1,2.5c0.7-0.7,1.8-0.7,2.5,0s0.7,1.8,0,2.5S3.8,5.7,3.1,5
		S2.4,3.2,3.1,2.5z"/>
	<path class="st8" d="M1.7,1v4.1l7.4,7.4l4.1-4.1L5.8,1H1.7z M3.1,2.5c0.7-0.7,1.8-0.7,2.5,0s0.7,1.8,0,2.5S3.8,5.7,3.1,5
		S2.4,3.2,3.1,2.5z"/>
	<path class="st1" d="M3.1,2.5C2.4,3.2,2.4,4.3,3.1,5s1.8,0.7,2.5,0s0.7-1.8,0-2.5S3.8,1.8,3.1,2.5z M3.8,3.2c0.3-0.3,0.8-0.3,1.1,0
		s0.3,0.8,0,1.1s-0.8,0.3-1.1,0C3.5,3.9,3.5,3.5,3.8,3.2z"/>
	<path class="st5" d="M5.7,7.5l2.4-2.4l3.5,3.5L9.2,11L5.7,7.5z"/>
	<path class="st8" d="M3.8,3.2c0.3-0.3,0.8-0.3,1.1,0s0.3,0.8,0,1.1s-0.8,0.3-1.1,0C3.5,3.9,3.5,3.5,3.8,3.2z"/>
</g>
<path class="st6" d="M8.3,6.1L6.6,7.4h-4L0,14h13l3-7.9H8.3z"/>
</svg>
